<svg xmlns="http://www.w3.org/2000/svg" viewBox="0 0 800 480" font-family="Segoe UI, system-ui, sans-serif">
<rect width="800" height="480" fill="#1c1c1e"/>

<!-- LEFT WINDOW: Run dialog -->
<rect x="20" y="60" width="240" height="190" rx="8" fill="#22222a" stroke="#38383c"/>
<text x="34" y="82" font-size="11.5" fill="#ffffff">Выполнить</text>
<line x1="222" y1="12" x2="230" y2="20" stroke="#ffffff" stroke-width="1.2"/>
<line x1="230" y1="12" x2="222" y2="20" stroke="#ffffff" stroke-width="1.2"/>
<line x1="20" y1="92" x2="260" y2="92" stroke="#2e2e32"/>

<!-- Icon -->
<circle cx="30" cy="120" r="16" fill="#7274FF" fill-opacity="0.15"/>
<text x="22" y="126" font-size="16" fill="#7274FF">→⚙</text>

<text x="76" y="114" font-size="11" fill="#ffffff">Введите имя программы,</text>
<text x="76" y="128" font-size="11" fill="#ffffff">папки, документа или</text>
<text x="76" y="142" font-size="11" fill="#ffffff">ресурса Интернета.</text>

<text x="34" y="178" font-size="11" fill="#ffffff">Открыть:</text>
<rect x="88" y="166" width="158" height="22" rx="4" fill="#1c1c1e" stroke="#7274FF" stroke-width="1.5"/>
<text x="96" y="181" font-size="12" fill="#ffffff">%temp%</text>
<line x1="138" y1="170" x2="138" y2="184" stroke="#ffffff" stroke-width="1"/>

<!-- Buttons -->
<rect x="72" y="202" width="54" height="26" rx="4" fill="#7274FF"/>
<text x="90" y="219" font-size="12" fill="#ffffff">ОК</text>
<rect x="130" y="202" width="54" height="26" rx="4" fill="#2a2a2e" stroke="#38383c"/>
<text x="141" y="219" font-size="12" fill="#ffffff">Отмена</text>
<rect x="188" y="202" width="54" height="26" rx="4" fill="#2a2a2e" stroke="#38383c"/>
<text x="198" y="219" font-size="12" fill="#ffffff">Обзор...</text>

<!-- ARROW between windows -->
<line x1="265" y1="215" x2="285" y2="215" stroke="#7274FF" stroke-width="2.5"/>
<polyline points="279,209 287,215 279,221" fill="none" stroke="#7274FF" stroke-width="2.5"/>
<text x="268" y="234" font-size="10" fill="#6d6d75">Enter</text>

<!-- RIGHT WINDOW: File Explorer -->
<rect x="295" y="20" width="485" height="440" rx="8" fill="#1c1c1e" stroke="#38383c"/>

<!-- Title bar -->
<rect x="309" y="7" width="6" height="3" fill="#7274FF"/>
<rect x="309" y="10" width="14" height="11" rx="1.5" fill="#7274FF"/>
<text x="333" y="27" font-size="12" fill="#ffffff">Temp</text>

<!-- Window controls -->
<line x1="715" y1="20" x2="723" y2="20" stroke="#ffffff" stroke-width="1.2"/>
<rect x="745" y="12" width="8" height="8" fill="none" stroke="#ffffff" stroke-width="1.2"/>
<line x1="765" y1="12" x2="773" y2="20" stroke="#ffffff" stroke-width="1.2"/>
<line x1="773" y1="12" x2="765" y2="20" stroke="#ffffff" stroke-width="1.2"/>
<line x1="295" y1="37" x2="780" y2="37" stroke="#2e2e32"/>

<!-- Toolbar -->
<rect x="295" y="37" width="485" height="36" fill="#202024"/>
<text x="311" y="59" font-size="14" fill="#ffffff">‹</text>
<text x="335" y="59" font-size="14" fill="#6d6d75">›</text>
<text x="357" y="59" font-size="14" fill="#ffffff">↑</text>
<text x="379" y="59" font-size="14" fill="#ffffff">↻</text>
<line x1="395" y1="45" x2="395" y2="69" stroke="#38383c"/>

<rect x="405" y="47" width="280" height="22" rx="4" fill="#2a2a2e" stroke="#38383c"/>
<text x="413" y="62" font-size="10" fill="#ffffff">C: › Users › User › AppData › Local › Temp</text>

<rect x="693" y="47" width="78" height="22" rx="4" fill="#2a2a2e" stroke="#38383c"/>
<text x="701" y="62" font-size="10" fill="#6d6d75">Поиск</text>

<!-- Column headers -->
<rect x="295" y="73" width="485" height="28" fill="#202024"/>
<text x="333" y="91" font-size="11" font-weight="600" fill="#ffffff">Имя</text>
<text x="520" y="91" font-size="11" font-weight="600" fill="#ffffff">Дата изм.</text>
<text x="680" y="91" font-size="11" font-weight="600" fill="#ffffff">Размер</text>
<line x1="295" y1="101" x2="780" y2="101" stroke="#2e2e32"/>

<!-- Row 1 FOLDER -->
<rect x="295" y="101" width="485" height="32" fill="#7274FF" fill-opacity="0.14"/>
<rect x="311" y="111" width="6" height="2" fill="#e7b64c"/>
<rect x="311" y="113" width="14" height="10" rx="1" fill="#e7b64c"/>
<text x="333" y="122" font-size="11" fill="#ffffff">chrome_BITS_1a2b3c4d</text>
<text x="520" y="122" font-size="11" fill="#a8a8ad">05.07.2026</text>
<text x="680" y="122" font-size="11" fill="#a8a8ad">—</text>

<!-- Row 2 FILE -->
<rect x="295" y="133" width="485" height="32" fill="#7274FF" fill-opacity="0.14"/>
<rect x="312" y="144" width="12" height="14" fill="#2a2a2e" stroke="#6d6d75"/>
<text x="333" y="154" font-size="11" fill="#ffffff">tmp_A5F3.tmp</text>
<text x="520" y="154" font-size="11" fill="#a8a8ad">05.07.2026</text>
<text x="680" y="154" font-size="11" fill="#a8a8ad">12 КБ</text>

<!-- Row 3 FILE -->
<rect x="295" y="165" width="485" height="32" fill="#7274FF" fill-opacity="0.14"/>
<rect x="312" y="176" width="12" height="14" fill="#2a2a2e" stroke="#6d6d75"/>
<text x="333" y="186" font-size="11" fill="#ffffff">setup_log.txt</text>
<text x="520" y="186" font-size="11" fill="#a8a8ad">05.07.2026</text>
<text x="680" y="186" font-size="11" fill="#a8a8ad">4 КБ</text>

<!-- Row 4 FOLDER -->
<rect x="295" y="197" width="485" height="32" fill="#7274FF" fill-opacity="0.14"/>
<rect x="311" y="207" width="6" height="2" fill="#e7b64c"/>
<rect x="311" y="209" width="14" height="10" rx="1" fill="#e7b64c"/>
<text x="333" y="218" font-size="11" fill="#ffffff">discord_cache</text>
<text x="520" y="218" font-size="11" fill="#a8a8ad">05.07.2026</text>
<text x="680" y="218" font-size="11" fill="#a8a8ad">—</text>

<!-- Row 5 FILE -->
<rect x="295" y="229" width="485" height="32" fill="#7274FF" fill-opacity="0.14"/>
<rect x="312" y="240" width="12" height="14" fill="#2a2a2e" stroke="#6d6d75"/>
<text x="333" y="250" font-size="11" fill="#ffffff">Steam_bootstrap.log</text>
<text x="520" y="250" font-size="11" fill="#a8a8ad">05.07.2026</text>
<text x="680" y="250" font-size="11" fill="#a8a8ad">28 КБ</text>

<!-- Row 6 FOLDER -->
<rect x="295" y="261" width="485" height="32" fill="#7274FF" fill-opacity="0.14"/>
<rect x="311" y="271" width="6" height="2" fill="#e7b64c"/>
<rect x="311" y="273" width="14" height="10" rx="1" fill="#e7b64c"/>
<text x="333" y="282" font-size="11" fill="#ffffff">nvidia_installer</text>
<text x="520" y="282" font-size="11" fill="#a8a8ad">05.07.2026</text>
<text x="680" y="282" font-size="11" fill="#a8a8ad">—</text>

<!-- Row 7 FILE -->
<rect x="295" y="293" width="485" height="32" fill="#7274FF" fill-opacity="0.14"/>
<rect x="312" y="304" width="12" height="14" fill="#2a2a2e" stroke="#6d6d75"/>
<text x="333" y="314" font-size="11" fill="#ffffff">~DF8E2A.TMP</text>
<text x="520" y="314" font-size="11" fill="#a8a8ad">04.07.2026</text>
<text x="680" y="314" font-size="11" fill="#a8a8ad">64 КБ</text>

<!-- Row 8 FILE -->
<rect x="295" y="325" width="485" height="32" fill="#7274FF" fill-opacity="0.14"/>
<rect x="312" y="336" width="12" height="14" fill="#2a2a2e" stroke="#6d6d75"/>
<text x="333" y="346" font-size="11" fill="#ffffff">MSI_Log_20260705.txt</text>
<text x="520" y="346" font-size="11" fill="#a8a8ad">04.07.2026</text>
<text x="680" y="346" font-size="11" fill="#a8a8ad">156 КБ</text>

<!-- Row 9 FILE -->
<rect x="295" y="357" width="485" height="32" fill="#7274FF" fill-opacity="0.14"/>
<rect x="312" y="368" width="12" height="14" fill="#2a2a2e" stroke="#6d6d75"/>
<text x="333" y="378" font-size="11" fill="#ffffff">jna-3506402.dll</text>
<text x="520" y="378" font-size="11" fill="#a8a8ad">04.07.2026</text>
<text x="680" y="378" font-size="11" fill="#a8a8ad">328 КБ</text>

<!-- Status bar -->
<rect x="295" y="428" width="485" height="32" fill="#202024"/>
<text x="311" y="446" font-size="11" fill="#a8a8ad">Выбрано элементов: 247 (156 МБ)</text>
<text x="770" y="446" font-size="11" fill="#a8a8ad" text-anchor="end">247 элем.</text>
</svg>