<svg width="220" height="90" viewBox="0 0 220 90" fill="none" xmlns="http://www.w3.org/2000/svg">
<path d="M79.3827 26.5L79.5302 26.6494L99.1659 46.6201V26.5H114.41V64.4863H99.4559L99.3094 64.3369L79.6737 44.3652V63.8945L79.9012 64.4863H64.4286V26.5H79.3827Z" fill="white" stroke="black"/>
<path d="M115.609 25L116.21 25.7363L125.301 36.8857L134.989 25.6914L135.588 25H154.969L152.294 28.2666L135.153 49.2051V65.9863H115.908V49.2021L98.864 28.2627L96.2078 25H115.609Z" fill="white" stroke="black" stroke-width="4"/>
<path d="M161.386 25L161.987 25.7676L168.308 33.8496L174.63 25.7676L175.231 25H196.054L193.587 28.2168L180.233 45.6328L193.578 62.7568L196.094 65.9863H175.234L174.633 65.2227L168.308 57.1758L161.984 65.2227L161.383 65.9863H140.515L143.042 62.7539L156.431 45.6328L143.033 28.2197L140.555 25H161.386Z" fill="white" stroke="black" stroke-width="4"/>
<path d="M50.541 25L51.0938 26.1055L54.2109 32.3408H61.5215L62.084 33.4062L69.9902 48.3701L70.4883 49.3135L69.9824 50.2529L62.0771 64.9346L61.5107 65.9863H44.376L43.8311 64.8516L40.4434 57.793L39.0674 54.9277H48.0576L53.4365 43.9639H43.0586L36.1299 57.8223L34.3232 61.4346L32.5449 57.8086L25.2041 42.8447L24.7725 41.9639L25.2041 41.083L32.5449 26.1191L33.0938 25H50.541Z" fill="#767DFF" stroke="black" stroke-width="4" stroke-linecap="round"/>
</svg>
